<svg width="62" height="77" viewBox="0 0 62 77" fill="none" xmlns="http://www.w3.org/2000/svg">
<path d="M56.1351 24.7991C53.0854 32.3959 44.4548 36.082 36.858 33.0323C29.2612 29.9826 25.575 21.352 28.6247 13.7552C31.6744 6.15841 40.3051 2.47225 47.9018 5.52194C55.4986 8.57162 59.1848 17.2023 56.1351 24.7991Z" fill="#EEC80C"/>
<path d="M56.1351 24.7991C53.0854 32.3959 44.4548 36.082 36.858 33.0323C29.2612 29.9826 25.575 21.352 28.6247 13.7552C31.6744 6.15841 40.3051 2.47225 47.9018 5.52194C55.4986 8.57162 59.1848 17.2023 56.1351 24.7991Z" fill="url(#paint0_linear_25_65)" fill-opacity="0.6"/>
<path fill-rule="evenodd" clip-rule="evenodd" d="M5.64272 50.3231H32.9259C39.5162 50.3231 44.8587 44.9806 44.8587 38.3903C44.8587 31.8887 39.659 26.6016 33.1913 26.4604C33.5253 25.3613 33.7049 24.1949 33.7049 22.9866C33.7049 16.3963 28.3624 11.0538 21.7721 11.0538L5.64272 11.0538L5.64272 50.3231ZM21.7721 26.3992H14.1629L14.1629 19.574L21.7721 19.574C23.6569 19.574 25.1847 21.1019 25.1847 22.9866C25.1847 24.8713 23.6569 26.3992 21.7721 26.3992ZM32.9259 41.8029L14.1629 41.8029L14.1629 34.9777H32.9259C34.8107 34.9777 36.3386 36.5056 36.3386 38.3903C36.3386 40.275 34.8107 41.8029 32.9259 41.8029Z" stroke="white" stroke-width="2.00979"/>
<path d="M4.65796 72.4045V61.8532H8.89358C9.98892 61.8532 10.823 62.1094 11.3958 62.6219C11.9786 63.1243 12.27 63.7725 12.27 64.5664C12.27 65.2296 12.0891 65.7622 11.7274 66.1641C11.3757 66.5561 10.9436 66.8224 10.4311 66.963C11.034 67.0836 11.5314 67.3851 11.9233 67.8674C12.3152 68.3397 12.5112 68.8924 12.5112 69.5255C12.5112 70.3596 12.2097 71.0479 11.6068 71.5906C11.0039 72.1332 10.1497 72.4045 9.04432 72.4045H4.65796ZM6.58735 66.2847H8.60719C9.14983 66.2847 9.56686 66.1591 9.85828 65.9079C10.1497 65.6567 10.2954 65.2999 10.2954 64.8377C10.2954 64.3955 10.1497 64.0488 9.85828 63.7976C9.57691 63.5364 9.14983 63.4057 8.57704 63.4057H6.58735V66.2847ZM6.58735 70.8369H8.74285C9.31564 70.8369 9.75779 70.7063 10.0693 70.445C10.3909 70.1737 10.5517 69.7968 10.5517 69.3145C10.5517 68.8221 10.3859 68.4352 10.0542 68.1538C9.72262 67.8725 9.27544 67.7318 8.7127 67.7318H6.58735V70.8369ZM16.0966 72.5854C15.4534 72.5854 14.9259 72.4849 14.5138 72.284C14.1018 72.0729 13.7953 71.7966 13.5944 71.4549C13.3934 71.1133 13.2929 70.7364 13.2929 70.3244C13.2929 69.631 13.5642 69.0683 14.1069 68.6362C14.6495 68.2041 15.4635 67.988 16.5488 67.988H18.448V67.8072C18.448 67.2947 18.3023 66.9178 18.0109 66.6766C17.7195 66.4355 17.3577 66.3149 16.9256 66.3149C16.5337 66.3149 16.192 66.4103 15.9006 66.6013C15.6092 66.7822 15.4283 67.0535 15.358 67.4152H13.4738C13.524 66.8726 13.7049 66.4003 14.0164 65.9983C14.338 65.5964 14.75 65.2899 15.2524 65.0789C15.7549 64.8578 16.3176 64.7472 16.9407 64.7472C18.0059 64.7472 18.8449 65.0135 19.4579 65.5461C20.0709 66.0787 20.3774 66.8324 20.3774 67.8072V72.4045H18.7344L18.5535 71.1987C18.3324 71.6006 18.0209 71.9322 17.619 72.1935C17.2271 72.4548 16.7196 72.5854 16.0966 72.5854ZM16.5337 71.0781C17.0864 71.0781 17.5135 70.8972 17.8149 70.5354C18.1264 70.1737 18.3224 69.7265 18.4028 69.1939H16.7598C16.2473 69.1939 15.8805 69.2894 15.6594 69.4803C15.4383 69.6612 15.3278 69.8873 15.3278 70.1586C15.3278 70.45 15.4383 70.6761 15.6594 70.8369C15.8805 70.9977 16.1719 71.0781 16.5337 71.0781ZM24.8438 72.4045C24.06 72.4045 23.432 72.2136 22.9597 71.8318C22.4874 71.4499 22.2512 70.7716 22.2512 69.7968V66.541H20.97V64.9281H22.2512L22.4773 62.9234H24.1806V64.9281H26.2004V66.541H24.1806V69.8119C24.1806 70.1737 24.256 70.4249 24.4067 70.5656C24.5675 70.6962 24.8388 70.7615 25.2207 70.7615H26.1552V72.4045H24.8438ZM29.8316 72.5854C29.1885 72.5854 28.6609 72.4849 28.2489 72.284C27.8369 72.0729 27.5304 71.7966 27.3294 71.4549C27.1284 71.1133 27.028 70.7364 27.028 70.3244C27.028 69.631 27.2993 69.0683 27.8419 68.6362C28.3846 68.2041 29.1985 67.988 30.2838 67.988H32.1831V67.8072C32.1831 67.2947 32.0374 66.9178 31.7459 66.6766C31.4545 66.4355 31.0928 66.3149 30.6606 66.3149C30.2687 66.3149 29.9271 66.4103 29.6357 66.6013C29.3442 66.7822 29.1634 67.0535 29.093 67.4152H27.2088C27.2591 66.8726 27.44 66.4003 27.7515 65.9983C28.073 65.5964 28.4851 65.2899 28.9875 65.0789C29.4899 64.8578 30.0527 64.7472 30.6757 64.7472C31.7409 64.7472 32.58 65.0135 33.193 65.5461C33.806 66.0787 34.1125 66.8324 34.1125 67.8072V72.4045H32.4695L32.2886 71.1987C32.0675 71.6006 31.756 71.9322 31.354 72.1935C30.9621 72.4548 30.4546 72.5854 29.8316 72.5854ZM30.2687 71.0781C30.8214 71.0781 31.2485 70.8972 31.55 70.5354C31.8615 70.1737 32.0574 69.7265 32.1378 69.1939H30.4948C29.9823 69.1939 29.6156 69.2894 29.3945 69.4803C29.1734 69.6612 29.0629 69.8873 29.0629 70.1586C29.0629 70.45 29.1734 70.6761 29.3945 70.8369C29.6156 70.9977 29.907 71.0781 30.2687 71.0781ZM39.7823 72.5854C39.2196 72.5854 38.7272 72.4799 38.3051 72.2689C37.883 72.0579 37.5414 71.7614 37.2801 71.3795L37.0691 72.4045H35.3507V61.5517H37.2801V65.9983C37.5213 65.6667 37.8378 65.3753 38.2297 65.1241C38.6317 64.8729 39.1492 64.7472 39.7823 64.7472C40.4857 64.7472 41.1138 64.9181 41.6665 65.2597C42.2192 65.6014 42.6563 66.0687 42.9779 66.6616C43.2994 67.2545 43.4602 67.9277 43.4602 68.6814C43.4602 69.4351 43.2994 70.1084 42.9779 70.7012C42.6563 71.2841 42.2192 71.7463 41.6665 72.088C41.1138 72.4196 40.4857 72.5854 39.7823 72.5854ZM39.3753 70.8972C39.9883 70.8972 40.4958 70.6912 40.8977 70.2792C41.2997 69.8672 41.5007 69.3346 41.5007 68.6814C41.5007 68.0282 41.2997 67.4906 40.8977 67.0686C40.4958 66.6465 39.9883 66.4355 39.3753 66.4355C38.7523 66.4355 38.2398 66.6465 37.8378 67.0686C37.4459 67.4806 37.25 68.0132 37.25 68.6663C37.25 69.3195 37.4459 69.8571 37.8378 70.2792C38.2398 70.6912 38.7523 70.8972 39.3753 70.8972ZM45.6209 63.7675C45.2692 63.7675 44.9778 63.662 44.7466 63.4509C44.5256 63.2399 44.415 62.9736 44.415 62.652C44.415 62.3305 44.5256 62.0692 44.7466 61.8682C44.9778 61.6572 45.2692 61.5517 45.6209 61.5517C45.9726 61.5517 46.259 61.6572 46.4801 61.8682C46.7112 62.0692 46.8268 62.3305 46.8268 62.652C46.8268 62.9736 46.7112 63.2399 46.4801 63.4509C46.259 63.662 45.9726 63.7675 45.6209 63.7675ZM44.6562 72.4045V64.9281H46.5856V72.4045H44.6562ZM51.3277 72.4045C50.5439 72.4045 49.9158 72.2136 49.4435 71.8318C48.9712 71.4499 48.7351 70.7716 48.7351 69.7968V66.541H47.4538V64.9281H48.7351L48.9612 62.9234H50.6645V64.9281H52.6843V66.541H50.6645V69.8119C50.6645 70.1737 50.7398 70.4249 50.8906 70.5656C51.0514 70.6962 51.3227 70.7615 51.7045 70.7615H52.6391V72.4045H51.3277Z" fill="white"/>
<circle cx="5.57992" cy="50.3075" r="3.57993" fill="#0B8AFF" stroke="white" stroke-width="2.00979"/>
<defs>
<linearGradient id="paint0_linear_25_65" x1="53.0821" y1="6.34292" x2="16.5759" y2="26.4741" gradientUnits="userSpaceOnUse">
<stop stop-color="white"/>
<stop offset="1" stop-color="white" stop-opacity="0"/>
</linearGradient>
</defs>
</svg>
