<svg width="600" height="466" viewBox="0 0 600 466" fill="none" xmlns="http://www.w3.org/2000/svg">
<path d="M210.765 45.0425L305.949 312.748M210.765 45.0425L438.527 25.4957M210.765 45.0425L105.382 202.266M210.765 45.0425L15.2972 45.8923M305.949 312.748L84.1357 333.994M305.949 312.748L579.603 181.87M305.949 312.748L490.368 358.64M305.949 312.748L283.852 460.623M305.949 312.748L105.382 202.266M305.949 312.748L566.006 20.3966M84.1357 333.994L105.382 202.266M84.1357 333.994L566.006 20.3966M105.382 202.266L15.2972 45.8923M105.382 202.266L566.006 20.3966M15.2972 45.8923L490.368 358.64M15.2972 45.8923L579.603 181.87M490.368 358.64L283.852 460.623M283.852 460.623L579.603 181.87M579.603 181.87L438.527 25.4957M579.603 181.87L566.006 20.3966M438.527 25.4957L566.006 20.3966" stroke="white" stroke-width="0.783998"/>
<path d="M210.765 45.0426L489.518 359.49" stroke="white" stroke-width="0.783998"/>
<path d="M209.915 45.8923L283.853 460.623M305.949 313.598L439.377 25.4957" stroke="white" stroke-width="0.783998"/>
<circle cx="84.9858" cy="333.145" r="19.6126" transform="rotate(-180 84.9858 333.145)" fill="white" stroke="white" stroke-width="1.568"/>
<circle r="6.79887" transform="matrix(1 8.74228e-08 8.74228e-08 -1 84.9858 333.144)" fill="#F7931A"/>
<circle cx="210.765" cy="45.8922" r="19.6126" transform="rotate(-180 210.765 45.8922)" fill="white" stroke="white" stroke-width="1.568"/>
<circle r="6.79887" transform="matrix(1 8.74228e-08 8.74228e-08 -1 210.765 45.8921)" fill="#F7931A"/>
<circle cx="579.603" cy="181.87" r="19.6126" transform="rotate(-180 579.603 181.87)" fill="white" stroke="white" stroke-width="1.568"/>
<circle r="6.79887" transform="matrix(1 8.74228e-08 8.74228e-08 -1 579.604 181.87)" fill="#F7931A"/>
<circle cx="566.005" cy="20.3968" r="19.6126" transform="rotate(-180 566.005 20.3968)" fill="white" stroke="white" stroke-width="1.568"/>
<circle r="6.79887" transform="matrix(1 8.74228e-08 8.74228e-08 -1 566.006 20.3969)" fill="#F7931A"/>
<circle cx="105.382" cy="202.266" r="14.5135" transform="rotate(-180 105.382 202.266)" fill="white" stroke="white" stroke-width="1.568"/>
<circle r="5.09915" transform="matrix(1 8.74228e-08 8.74228e-08 -1 105.383 202.266)" fill="#FFE9D5"/>
<circle cx="15.2974" cy="45.8922" r="14.5135" transform="rotate(-180 15.2974 45.8922)" fill="white" stroke="white" stroke-width="1.568"/>
<circle r="5.09915" transform="matrix(1 8.74228e-08 8.74228e-08 -1 15.2975 45.8923)" fill="#FFE9D5"/>
<circle cx="489.518" cy="358.64" r="14.5135" transform="rotate(-180 489.518 358.64)" fill="white" stroke="white" stroke-width="1.568"/>
<circle r="5.09915" transform="matrix(1 8.74228e-08 8.74228e-08 -1 489.518 358.64)" fill="#FFE9D5"/>
<circle cx="438.527" cy="25.4958" r="14.5135" transform="rotate(-180 438.527 25.4958)" fill="white" stroke="white" stroke-width="1.568"/>
<circle r="5.09915" transform="matrix(1 8.74228e-08 8.74228e-08 -1 438.527 25.4958)" fill="#FFE9D5"/>
<circle r="5.09915" transform="matrix(1 8.74228e-08 8.74228e-08 -1 283.853 460.623)" fill="white"/>
<circle r="5.09915" transform="matrix(1 8.74228e-08 8.74228e-08 -1 305.949 312.748)" fill="white"/>
</svg>
